<svg xmlns="http://www.w3.org/2000/svg" width="793.437" height="6783.871" viewBox="0 0 793.437 6783.871">
  <g id="Group_75" data-name="Group 75" transform="translate(135.92 221.123)">
    <g id="Group_75-2" data-name="Group 75" transform="translate(0 3604)">
      <path id="Path_38" data-name="Path 38" d="M8205.465,9693.066a16.788,16.788,0,0,0,8.973-3.8l1.352-1.562a15.255,15.255,0,0,0,1.289-2,12.992,12.992,0,0,0-1.027-13.82l-.328-.391c-7.211-8.523-19.3-5.719-22.789,3.57l-.211.516a12.743,12.743,0,0,0,3.344,13.383A13.9,13.9,0,0,0,8205.465,9693.066Z" transform="translate(-8138.674 -8849.189)" fill="#fff" fill-rule="evenodd" opacity="0.1"/>
      <path id="Path_47" data-name="Path 47" d="M8205.465,9693.066a16.788,16.788,0,0,0,8.973-3.8l1.352-1.562a15.255,15.255,0,0,0,1.289-2,12.992,12.992,0,0,0-1.027-13.82l-.328-.391c-7.211-8.523-19.3-5.719-22.789,3.57l-.211.516a12.743,12.743,0,0,0,3.344,13.383A13.9,13.9,0,0,0,8205.465,9693.066Z" transform="translate(-7706.542 -8013.383)" fill="#fff" fill-rule="evenodd" opacity="0.1"/>
      <path id="Path_39" data-name="Path 39" d="M8047.3,12502.836c0,5.844,1.738,10.063,6.945,12.766a12.945,12.945,0,0,0,15.594-2.633,13.166,13.166,0,0,0-2.707-20.477,13.589,13.589,0,0,0-12.965-.3C8050.578,12494.023,8047.3,12498.289,8047.3,12502.836Z" transform="translate(-8003.139 -11494.488)" fill="#fff" fill-rule="evenodd" opacity="0.1"/>
      <path id="Path_45" data-name="Path 45" d="M8047.3,12502.836c0,5.844,1.738,10.063,6.945,12.766a12.945,12.945,0,0,0,15.594-2.633,13.166,13.166,0,0,0-2.707-20.477,13.589,13.589,0,0,0-12.965-.3C8050.578,12494.023,8047.3,12498.289,8047.3,12502.836Z" transform="translate(-7571.006 -10658.682)" fill="#fff" fill-rule="evenodd" opacity="0.1"/>
      <path id="Path_41" data-name="Path 41" d="M8047.3,12620.742c0,62.578,18.617,107.75,74.367,136.7,57.477,29.781,121.469,18.063,166.977-28.2,67.555-68.516,43.961-176.672-28.984-219.25-42.539-24.937-95.281-25.359-138.828-3.266C8082.359,12526.383,8047.3,12572.055,8047.3,12620.742Z" transform="translate(-7671.139 -11646.818)" fill="#fff" fill-rule="evenodd" opacity="0.05"/>
      <path id="Path_42" data-name="Path 42" d="M8047.3,12620.742c0,62.578,18.617,107.75,74.367,136.7,57.477,29.781,121.469,18.063,166.977-28.2,67.555-68.516,43.961-176.672-28.984-219.25-42.539-24.937-95.281-25.359-138.828-3.266C8082.359,12526.383,8047.3,12572.055,8047.3,12620.742Z" transform="translate(-8183.225 -12393.818)" fill="#3362ff" fill-rule="evenodd" opacity="0.05"/>
      <path id="Path_44" data-name="Path 44" d="M8047.3,12620.742c0,62.578,18.617,107.75,74.367,136.7,57.477,29.781,121.469,18.063,166.977-28.2,67.555-68.516,43.961-176.672-28.984-219.25-42.539-24.937-95.281-25.359-138.828-3.266C8082.359,12526.383,8047.3,12572.055,8047.3,12620.742Z" transform="translate(-7897.225 -11242.253)" fill="#3362ff" fill-rule="evenodd" opacity="0.05"/>
      <path id="Path_43" data-name="Path 43" d="M8047.3,12620.742c0,62.578,18.617,107.75,74.367,136.7,57.477,29.781,121.469,18.063,166.977-28.2,67.555-68.516,43.961-176.672-28.984-219.25-42.539-24.937-95.281-25.359-138.828-3.266C8082.359,12526.383,8047.3,12572.055,8047.3,12620.742Z" transform="translate(-7764.225 -12711.818)" fill="#ff0076" fill-rule="evenodd" opacity="0.05"/>
      <path id="Path_48" data-name="Path 48" d="M8047.3,12620.742c0,62.578,18.617,107.75,74.367,136.7,57.477,29.781,121.469,18.063,166.977-28.2,67.555-68.516,43.961-176.672-28.984-219.25-42.539-24.937-95.281-25.359-138.828-3.266C8082.359,12526.383,8047.3,12572.055,8047.3,12620.742Z" transform="translate(-8170.092 -10589.695)" fill="#ff0076" fill-rule="evenodd" opacity="0.05"/>
      <path id="Path_40" data-name="Path 40" d="M7218.828,10916.93a13.246,13.246,0,0,0,3.367,9.039,12.961,12.961,0,0,0,5.473,3.648c1.754.641,3.668.453,5.746.453,5.938,0,11.68-6.078,11.68-12.047v-1.82c0-5.969-5.742-12.047-11.68-12.047-4.895,0-7.266-.016-11.043,3.914A12.253,12.253,0,0,0,7218.828,10916.93Z" transform="translate(-7187.79 -10171.256)" fill="#fff" fill-rule="evenodd" opacity="0.1"/>
      <path id="Path_49" data-name="Path 49" d="M7218.828,10916.93a13.246,13.246,0,0,0,3.367,9.039,12.961,12.961,0,0,0,5.473,3.648c1.754.641,3.668.453,5.746.453,5.938,0,11.68-6.078,11.68-12.047v-1.82c0-5.969-5.742-12.047-11.68-12.047-4.895,0-7.266-.016-11.043,3.914A12.253,12.253,0,0,0,7218.828,10916.93Z" transform="translate(-7137.598 -9973.256)" fill="#fff" fill-rule="evenodd" opacity="0.1"/>
      <path id="Path_50" data-name="Path 50" d="M7218.828,10916.93a13.246,13.246,0,0,0,3.367,9.039,12.961,12.961,0,0,0,5.473,3.648c1.754.641,3.668.453,5.746.453,5.938,0,11.68-6.078,11.68-12.047v-1.82c0-5.969-5.742-12.047-11.68-12.047-4.895,0-7.266-.016-11.043,3.914A12.253,12.253,0,0,0,7218.828,10916.93Z" transform="translate(-7082.79 -10070.256)" fill="#fff" fill-rule="evenodd" opacity="0.1"/>
      <path id="Path_46" data-name="Path 46" d="M7218.828,10916.93a13.246,13.246,0,0,0,3.367,9.039,12.961,12.961,0,0,0,5.473,3.648c1.754.641,3.668.453,5.746.453,5.938,0,11.68-6.078,11.68-12.047v-1.82c0-5.969-5.742-12.047-11.68-12.047-4.895,0-7.266-.016-11.043,3.914A12.253,12.253,0,0,0,7218.828,10916.93Z" transform="translate(-6795.073 -9172.693)" fill="#fff" fill-rule="evenodd" opacity="0.1"/>
      <rect id="Rectangle_117" data-name="Rectangle 117" width="202" height="202" rx="12" transform="matrix(0.966, 0.259, -0.259, 0.966, 342.967, 2263.144)" fill="#fff" opacity="0.05"/>
      <path id="Polygon_1" data-name="Polygon 1" d="M135.75,0,181,78.5,135.75,157H45.25L0,78.5,45.25,0Z" transform="matrix(0.966, -0.259, 0.259, 0.966, 52.766, 2807.098)" fill="#ffba00" opacity="0.05"/>
    </g>
    <path id="Union_1" data-name="Union 1" d="M10.607,186.705a15,15,0,0,1,0-21.213L92.656,83.443l-.195-.338a44,44,0,0,1,16.1-60.1l1.732-1a44,44,0,0,1,60.1,16.106l1,1.732a44,44,0,0,1-16.1,60.1l-1.732,1a43.933,43.933,0,0,1-38.62,2.638L31.819,186.705a15,15,0,0,1-21.213,0Z" transform="translate(-66 769.328)" fill="#fff" opacity="0.05"/>
    <path id="Union_2" data-name="Union 2" d="M10.607,186.705a15,15,0,0,1,0-21.213L92.656,83.443l-.195-.338a44,44,0,0,1,16.1-60.1l1.732-1a44,44,0,0,1,60.1,16.106l1,1.732a44,44,0,0,1-16.1,60.1l-1.732,1a43.933,43.933,0,0,1-38.62,2.638L31.819,186.705a15,15,0,0,1-21.213,0Z" transform="translate(-77 948.328)" fill="#fff" opacity="0.05"/>
    <path id="Path_52" data-name="Path 52" d="M8205.465,9693.066a16.788,16.788,0,0,0,8.973-3.8l1.352-1.562a15.255,15.255,0,0,0,1.289-2,12.992,12.992,0,0,0-1.027-13.82l-.328-.391c-7.211-8.523-19.3-5.719-22.789,3.57l-.211.516a12.743,12.743,0,0,0,3.344,13.383A13.9,13.9,0,0,0,8205.465,9693.066Z" transform="translate(-8138.674 -8849.189)" fill="#fff" fill-rule="evenodd" opacity="0.1"/>
    <path id="Path_47-2" data-name="Path 47" d="M8205.465,9693.066a16.788,16.788,0,0,0,8.973-3.8l1.352-1.562a15.255,15.255,0,0,0,1.289-2,12.992,12.992,0,0,0-1.027-13.82l-.328-.391c-7.211-8.523-19.3-5.719-22.789,3.57l-.211.516a12.743,12.743,0,0,0,3.344,13.383A13.9,13.9,0,0,0,8205.465,9693.066Z" transform="translate(-7706.542 -8013.383)" fill="#fff" fill-rule="evenodd" opacity="0.1"/>
    <path id="Path_45-2" data-name="Path 45" d="M8047.3,12502.836c0,5.844,1.738,10.063,6.945,12.766a12.945,12.945,0,0,0,15.594-2.633,13.166,13.166,0,0,0-2.707-20.477,13.589,13.589,0,0,0-12.965-.3C8050.578,12494.023,8047.3,12498.289,8047.3,12502.836Z" transform="translate(-7571.006 -10658.682)" fill="#fff" fill-rule="evenodd" opacity="0.1"/>
    <path id="Path_41-2" data-name="Path 41" d="M8047.3,12620.742c0,62.578,18.617,107.75,74.367,136.7,57.477,29.781,121.469,18.063,166.977-28.2,67.555-68.516,43.961-176.672-28.984-219.25-42.539-24.937-95.281-25.359-138.828-3.266C8082.359,12526.383,8047.3,12572.055,8047.3,12620.742Z" transform="translate(-7671.139 -11646.818)" fill="#fff" fill-rule="evenodd" opacity="0.05"/>
    <path id="Path_42-2" data-name="Path 42" d="M8047.3,12620.742c0,62.578,18.617,107.75,74.367,136.7,57.477,29.781,121.469,18.063,166.977-28.2,67.555-68.516,43.961-176.672-28.984-219.25-42.539-24.937-95.281-25.359-138.828-3.266C8082.359,12526.383,8047.3,12572.055,8047.3,12620.742Z" transform="translate(-8183.225 -12393.818)" fill="#3362ff" fill-rule="evenodd" opacity="0.05"/>
    <path id="Path_44-2" data-name="Path 44" d="M8047.3,12620.742c0,62.578,18.617,107.75,74.367,136.7,57.477,29.781,121.469,18.063,166.977-28.2,67.555-68.516,43.961-176.672-28.984-219.25-42.539-24.937-95.281-25.359-138.828-3.266C8082.359,12526.383,8047.3,12572.055,8047.3,12620.742Z" transform="translate(-7897.225 -11242.253)" fill="#3362ff" fill-rule="evenodd" opacity="0.05"/>
    <path id="Path_43-2" data-name="Path 43" d="M8047.3,12620.742c0,62.578,18.617,107.75,74.367,136.7,57.477,29.781,121.469,18.063,166.977-28.2,67.555-68.516,43.961-176.672-28.984-219.25-42.539-24.937-95.281-25.359-138.828-3.266C8082.359,12526.383,8047.3,12572.055,8047.3,12620.742Z" transform="translate(-7764.225 -12711.818)" fill="#ff0076" fill-rule="evenodd" opacity="0.05"/>
    <path id="Path_48-2" data-name="Path 48" d="M8047.3,12620.742c0,62.578,18.617,107.75,74.367,136.7,57.477,29.781,121.469,18.063,166.977-28.2,67.555-68.516,43.961-176.672-28.984-219.25-42.539-24.937-95.281-25.359-138.828-3.266C8082.359,12526.383,8047.3,12572.055,8047.3,12620.742Z" transform="translate(-8170.092 -10589.695)" fill="#ff0076" fill-rule="evenodd" opacity="0.05"/>
    <path id="Path_40-2" data-name="Path 40" d="M7218.828,10916.93a13.246,13.246,0,0,0,3.367,9.039,12.961,12.961,0,0,0,5.473,3.648c1.754.641,3.668.453,5.746.453,5.938,0,11.68-6.078,11.68-12.047v-1.82c0-5.969-5.742-12.047-11.68-12.047-4.895,0-7.266-.016-11.043,3.914A12.253,12.253,0,0,0,7218.828,10916.93Z" transform="translate(-7187.79 -10171.256)" fill="#ff0076" fill-rule="evenodd" opacity="0.1"/>
    <path id="Path_49-2" data-name="Path 49" d="M7218.828,10916.93a13.246,13.246,0,0,0,3.367,9.039,12.961,12.961,0,0,0,5.473,3.648c1.754.641,3.668.453,5.746.453,5.938,0,11.68-6.078,11.68-12.047v-1.82c0-5.969-5.742-12.047-11.68-12.047-4.895,0-7.266-.016-11.043,3.914A12.253,12.253,0,0,0,7218.828,10916.93Z" transform="translate(-7137.598 -9973.256)" fill="#ffba00" fill-rule="evenodd" opacity="0.1"/>
    <path id="Path_50-2" data-name="Path 50" d="M7218.828,10916.93a13.246,13.246,0,0,0,3.367,9.039,12.961,12.961,0,0,0,5.473,3.648c1.754.641,3.668.453,5.746.453,5.938,0,11.68-6.078,11.68-12.047v-1.82c0-5.969-5.742-12.047-11.68-12.047-4.895,0-7.266-.016-11.043,3.914A12.253,12.253,0,0,0,7218.828,10916.93Z" transform="translate(-7082.79 -10070.256)" fill="#3362ff" fill-rule="evenodd" opacity="0.1"/>
    <path id="Path_46-2" data-name="Path 46" d="M7218.828,10916.93a13.246,13.246,0,0,0,3.367,9.039,12.961,12.961,0,0,0,5.473,3.648c1.754.641,3.668.453,5.746.453,5.938,0,11.68-6.078,11.68-12.047v-1.82c0-5.969-5.742-12.047-11.68-12.047-4.895,0-7.266-.016-11.043,3.914A12.253,12.253,0,0,0,7218.828,10916.93Z" transform="translate(-6795.073 -9172.693)" fill="#fff" fill-rule="evenodd" opacity="0.1"/>
    <rect id="Rectangle_117-2" data-name="Rectangle 117" width="202" height="202" rx="12" transform="matrix(0.966, 0.259, -0.259, 0.966, 342.967, 2263.144)" fill="#fff" opacity="0.05"/>
    <path id="Polygon_1-2" data-name="Polygon 1" d="M135.75,0,181,78.5,135.75,157H45.25L0,78.5,45.25,0Z" transform="matrix(0.966, -0.259, 0.259, 0.966, 52.766, 2807.098)" fill="#ffba00" opacity="0.05"/>
    <path id="Path_51" data-name="Path 51" d="M8047.3,12502.836c0,5.844,1.738,10.063,6.945,12.766a12.945,12.945,0,0,0,15.594-2.633,13.166,13.166,0,0,0-2.707-20.477,13.589,13.589,0,0,0-12.965-.3C8050.578,12494.023,8047.3,12498.289,8047.3,12502.836Z" transform="translate(-8003.139 -11494.488)" fill="#fff" fill-rule="evenodd" opacity="0.1"/>
  </g>
</svg>
